# xmcd
# 
# Track frame offsets:
#     150
#     21230
#     41480
#     62652
#     81025
#     101500
#     119997
#     138390
#     155220
#     175750
#     195880
# 
# Disc length: 2723
# 
# Revision: 11
# Processed by: cddbd v1.5.2PL0 Copyright (c) Steve Scherf et al.
# Submitted via: BonkEnc v1.0.8
# 
DISCID=920aa10b
DTITLE=松隆子 - a piece of life
DYEAR=2001
DGENRE=Pop
TTITLE0=コイシイヒト
TTITLE1=雨の色
TTITLE2=a bird
TTITLE3=another birthday
TTITLE4=優しい風
TTITLE5=Sha la la
TTITLE6=PIANISSIMO
TTITLE7=ゆびさき
TTITLE8=a piece of life
TTITLE9=沈丁花
TTITLE10=(bonus track)
EXTD=
EXTT0=
EXTT1=
EXTT2=
EXTT3=
EXTT4=
EXTT5=
EXTT6=
EXTT7=
EXTT8=
EXTT9=
EXTT10=
PLAYORDER=
